<svg width="70" height="70" viewBox="0 0 70 70" fill="none" xmlns="http://www.w3.org/2000/svg">
<g id="play">
<path id="Vector" fill-rule="evenodd" clip-rule="evenodd" d="M35 70C44.2826 70 53.185 66.3125 59.7487 59.7487C66.3125 53.185 70 44.2826 70 35C70 25.7174 66.3125 16.815 59.7487 10.2513C53.185 3.68749 44.2826 0 35 0C25.7174 0 16.815 3.68749 10.2513 10.2513C3.68749 16.815 0 25.7174 0 35C0 44.2826 3.68749 53.185 10.2513 59.7487C16.815 66.3125 25.7174 70 35 70ZM33.0531 22.61C32.3942 22.1704 31.6284 21.9179 30.8373 21.8795C30.0461 21.8411 29.2594 22.0181 28.561 22.3918C27.8626 22.7655 27.2788 23.3217 26.8718 24.0012C26.4648 24.6807 26.2499 25.4579 26.25 26.25V43.75C26.2499 44.5421 26.4648 45.3193 26.8718 45.9988C27.2788 46.6783 27.8626 47.2345 28.561 47.6082C29.2594 47.9819 30.0461 48.1589 30.8373 48.1205C31.6284 48.0821 32.3942 47.8296 33.0531 47.39L46.1781 38.64C46.7773 38.2405 47.2686 37.6992 47.6084 37.0642C47.9482 36.4292 48.126 35.7202 48.126 35C48.126 34.2798 47.9482 33.5708 47.6084 32.9358C47.2686 32.3008 46.7773 31.7595 46.1781 31.36L33.0531 22.61Z" fill="#D3BF90"/>
</g>
</svg>
